<svg xmlns="http://www.w3.org/2000/svg" viewBox="0 0 3500 2500"><defs><style>.cls-1{isolation:isolate;}.cls-2{fill:#fff;}.cls-3{fill:#2e5b99;}.cls-4{fill:#e6f6ff;}.cls-5{fill:#0f4599;}.cls-6{fill:#bae2ff;}.cls-7{fill:#1480cc;}.cls-8{fill:#ebf3ff;}.cls-9{fill:#3397ff;}.cls-10{fill:#e3eeff;}.cls-11{fill:#cce5ff;}.cls-12{fill:#66b8ff;}.cls-13{mix-blend-mode:darken;opacity:0.5;}.cls-14{fill:#61b3f2;}.cls-15{fill:#2e97e6;}.cls-16{fill:#0e0e0e;}.cls-17{fill:#2475b3;}.cls-18{fill:#3f9ee6;}.cls-19{fill:#1a5380;}.cls-20{fill:#e6e6e6;}.cls-21{fill:#999;}.cls-22{fill:gray;}.cls-23{fill:#666;}.cls-24{fill:#f7af0c;}.cls-25{fill:#cc840a;}.cls-26{fill:#803d00;}.cls-27{fill:#e6950b;}.cls-28{fill:#f7e4ad;}.cls-29{fill:#4582e6;}.cls-30{fill:#3d73cc;}.cls-31{fill:#002e73;}.cls-32{fill:#231f20;}.cls-33{fill:#f7a594;}.cls-34{fill:#e6836f;}.cls-35{fill:#73382a;}.cls-36{fill:#d9ffff;}.cls-37{fill:#007880;}.cls-38{fill:#008f99;}</style></defs><g class="cls-1"><g id="BG"><rect class="cls-2" width="3500" height="2500"/></g><g id="shadow"><path class="cls-3" d="M3013.88,2180.12H400a8.37,8.37,0,0,1,0-16.74H3013.88a8.37,8.37,0,0,1,0,16.74Z"/><rect class="cls-4" x="2198.53" y="492.68" width="839.96" height="785.45" transform="translate(5237.01 1770.82) rotate(180)"/><rect class="cls-4" x="806.2" y="1380.34" width="565.56" height="508.24" transform="translate(2177.97 3268.92) rotate(180)"/></g><g id="folder"><path class="cls-2" d="M2089.84,982.77V912.22a58,58,0,0,1,58-58H2765.3a58,58,0,0,1,58,58v1247H1226.1V982.77Z"/><path class="cls-5" d="M2084.71,982.77V912.22a58,58,0,0,1,58-58h617.47a58,58,0,0,1,58,58v1247H1221V982.77Z"/><polygon class="cls-6" points="2764.67 1031.52 2764.67 2159.26 1285.09 2159.26 1285.09 1025.97 2764.67 1031.52"/><polygon class="cls-7" points="2683.44 1031.52 2683.44 2159.26 1203.86 2159.26 1203.86 1025.97 2683.44 1031.52"/><path class="cls-2" d="M1144.21,982.78H2605.93c30,0,52.1,20.3,56.41,48.37v1128.1H1067V1059.77C1066.66,1019.26,1103.22,982.78,1144.21,982.78Z"/><rect class="cls-8" x="1681.29" y="753.49" width="854.32" height="649.26" transform="translate(4213.88 2162.14) rotate(-179.84)"/><rect class="cls-9" x="1703.59" y="774.68" width="810.62" height="596.88" transform="translate(4214.79 2152.13) rotate(-179.84)"/><polygon class="cls-10" points="2445.05 1324.59 1924.12 1323.13 2208.95 1049.88 2445.05 1324.59"/><polygon class="cls-10" points="2208.18 1323.92 1770.48 1322.69 2007.99 1096.86 2208.18 1323.92"/><circle class="cls-10" cx="2046.25" cy="989.09" r="60.33" transform="translate(-100.06 1736.61) rotate(-45)"/><rect class="cls-8" x="1567.69" y="636.27" width="792.03" height="688.78" transform="translate(3924.25 1967.61) rotate(-179.82)"/><rect class="cls-9" x="1590.64" y="658.75" width="747.05" height="633.2" transform="translate(3925.18 1957.03) rotate(-179.82)"/><rect class="cls-11" x="1967.81" y="747.37" width="297.52" height="26.14"/><rect class="cls-11" x="1660.02" y="817.96" width="605.32" height="26.14" transform="translate(3925.35 1662.05) rotate(180)"/><rect class="cls-11" x="1660.02" y="889.82" width="605.32" height="26.14" transform="translate(3925.35 1805.79) rotate(180)"/><path class="cls-12" d="M1137.18,982.78H2598.89c30,0,52.1,20.3,56.41,48.37V2163.3H1060V1059.77C1059.62,1019.26,1096.19,982.78,1137.18,982.78Z"/><rect class="cls-2" x="2662.34" y="2152.77" width="160.97" height="6.49" transform="translate(5485.65 4312.02) rotate(180)"/><polygon class="cls-13" points="2823.31 1459.92 2764.67 1498.18 2687.2 1498.18 2662.34 1517.31 2662.34 1499.14 1067.02 1499.14 1067.02 1459.92 2823.31 1459.92"/><rect class="cls-14" x="1034.52" y="1272.75" width="1811.45" height="204.67" transform="translate(3880.48 2750.18) rotate(180)"/><rect class="cls-15" x="1034.52" y="1272.75" width="1648.38" height="204.67" transform="translate(3717.42 2750.18) rotate(180)"/><polygon class="cls-16" points="2227.2 1272.75 2227.2 1477.36 2083.97 1477.36 2184.39 1272.75 2227.2 1272.75"/><path class="cls-17" d="M2177.7,1374.86c0,28.32,4.94,53.94,13.26,72.38,8.11,18.88,19.4,30.12,31.86,30.12h38V1272.82h-38C2197.88,1272.82,2177.7,1318.67,2177.7,1374.86Zm36,33.72c-7.12-2.25-12.67-16.18-12.67-33.72,0-17.07,5.55-31,12.67-33.26,7.13,2.25,12.67,16.19,12.67,33.26C2226.39,1392.4,2220.85,1406.33,2213.72,1408.58Z"/><path class="cls-18" d="M2197.07,1374.86c0,28.32,5.18,53.94,13.88,72.38,8.49,18.88,20.29,30.12,33.34,30.12h16.57V1272.82h-16.57C2218.2,1272.82,2197.07,1318.67,2197.07,1374.86Zm18.23,0c0-17.07,10.77-31,18.22-33.26,7.46,2.25,13.25,16.19,13.25,33.26,0,17.54-5.79,31.47-13.25,33.72C2226.07,1406.33,2215.3,1392.4,2215.3,1374.86Z"/><path class="cls-17" d="M2195.92,1374.86c0,28.32,4.95,53.94,13.26,72.38,8.11,18.88,19.4,30.12,31.86,30.12h38V1272.82h-38C2216.11,1272.82,2195.92,1318.67,2195.92,1374.86Zm36,33.72c-7.12-2.25-12.66-16.18-12.66-33.72,0-17.07,5.54-31,12.66-33.26,7.13,2.25,12.67,16.19,12.67,33.26C2244.61,1392.4,2239.07,1406.33,2231.94,1408.58Z"/><path class="cls-14" d="M2215.29,1374.86c0,28.32,5.18,53.94,13.88,72.38,8.49,18.88,20.29,30.12,33.34,30.12h16.57V1272.82h-16.57C2236.42,1272.82,2215.29,1318.67,2215.29,1374.86Zm18.23,0c0-17.07,5.8-31,13.25-33.26,7.46,2.25,13.26,16.19,13.26,33.26,0,17.54-5.8,31.47-13.26,33.72C2239.32,1406.33,2233.52,1392.4,2233.52,1374.86Z"/><path class="cls-19" d="M2240.86,1478.69c-1.61,0-10.88-.43-20.68-9.84-11.13-10.68-24.38-34.8-24.38-89.08,0-51.71,12.09-78.32,22.23-91.55,11.17-14.56,22.32-16.63,22.79-16.71a1.33,1.33,0,0,1,.46,2.62h0c-.11,0-10.77,2.07-21.32,15.95-9.81,12.91-21.5,39-21.5,89.69,0,53.21,12.76,76.72,23.46,87.06,9.73,9.4,19,9.21,19.08,9.19a1.34,1.34,0,0,1,.1,2.67Z"/><path class="cls-20" d="M2246.76,1405.84c1.8.45,3.14.9,4.93,1.35-.44.45-.44.45,0,.45,72.38,21.57,125.87,88.1,125.87,167.67v170.86h57.54V1575.31c0-110.58-77.76-203.19-181.61-226.56a36.44,36.44,0,0,0-6.73-1.79C2230.12,1343.36,2228.77,1403.15,2246.76,1405.84Z"/><path class="cls-20" d="M2178.65,1343.9v57.22c-74.17,9.55-134.05,64.57-150,136.48a19.1,19.1,0,0,0-.9,4.49,104.4,104.4,0,0,0-1.8,11.68,173.66,173.66,0,0,0-1.35,21.58v170.86h-57.09V1575.35C1967.53,1454.51,2060.4,1355.5,2178.65,1343.9Z"/><path class="cls-21" d="M2245.43,1389c134.92,23.66,152.29,170.55,152.29,170.55v186.7h-20.24V1575.35c0-81.25-55.7-149.16-130.68-169.39-5.73-1.86-9.3-18.64-9.3-18.64S2241,1388.12,2245.43,1389Z"/><path class="cls-22" d="M2178.65,1389v12.16c-74.17,9.55-134.05,64.57-150,136.48C2031.9,1495.63,2066.7,1403.91,2178.65,1389Z"/><path class="cls-23" d="M2246.76,1405.84c1.8.45,3.14.9,4.93,1.35-1.34-3.6-8.66-11.77-9.56-28.85-.9-17.53,5.06-29.39,11.36-29.59a36.44,36.44,0,0,0-6.73-1.79C2230.12,1343.36,2228.77,1403.15,2246.76,1405.84Z"/><rect class="cls-24" x="1917.63" y="1699.59" width="566.84" height="463.36"/><path class="cls-25" d="M2209.58,1814.05a21.45,21.45,0,0,0-5.4-.46,70.16,70.16,0,0,0-70.12,70.34,71.26,71.26,0,0,0,41.36,64.43v119.35c0,15.88,13,29,28.76,29a15.31,15.31,0,0,0,4.5-.45H2210a29.17,29.17,0,0,0,22.94-28.59V1948.36a70.79,70.79,0,0,0,41.35-64.43A69.71,69.71,0,0,0,2209.58,1814.05Z"/><path class="cls-26" d="M2209.58,1814.05c-36.41,2.26-65.19,32.67-65.19,69.88a71.27,71.27,0,0,0,41.37,64.43v119.35a29.16,29.16,0,0,0,22.92,28.59H2210a29.17,29.17,0,0,0,22.94-28.59V1948.36a70.79,70.79,0,0,0,41.35-64.43A69.71,69.71,0,0,0,2209.58,1814.05Z"/><path class="cls-27" d="M2097.5,2162.94H1917.63V1699.59h49.9S1954.28,2041.47,2097.5,2162.94Z"/><path class="cls-28" d="M2362.77,2162.94c43-91.92,34.95-339,34.95-463.35h57.09v463.35Z"/></g><g id="super_hero" data-name="super hero"><path class="cls-29" d="M1778.12,1733.32s-58.16-1.89-115.46.85c-59.53,2.91-118.21,10.78-109.82,31.31A21.79,21.79,0,0,1,1554,1779c-12,54.91-229,96-276.94,62.27-35.75-25.15-134.29,7.18-174.66,24.63-76.88-514.63-79-1040.73-10.94-1077.34,68.08-36.43,256.76,9.76,256.76,9.76s95.62,25.31,134.62,286.86C1522,1346.55,1778.12,1733.32,1778.12,1733.32Z"/><path class="cls-30" d="M1552.84,1765.48A21.79,21.79,0,0,1,1554,1779c-58.84-179.44-197.4-692.11-147.11-552.35,48.24,134.79,199.63,407.8,255.74,507.53C1603.13,1737.08,1544.45,1745,1552.84,1765.48Z"/><path class="cls-31" d="M1084.38,924.63c-55.94,68.42-66.2,85-118.55,88.61,17.62,11.12,28.06,26.17,35.24,42.42h.17c15.4,33.7,17.62,73,44.48,95.11l-32.16,31.64-8.21,8.21s-1.2-1-3.25-2.9c-14-13-69.79-65.52-103-113.76-19.5-28-31.3-54.57-23.09-71.16,13.34-48.24,47.55-147.28,134.62-176.88,57.14-62.09,113.07-28.73,132.92-2.9C1170.08,857.57,1143.39,931.47,1084.38,924.63Z"/><path class="cls-32" d="M1045.72,1150.77l-32.16,31.64-11.46,5.31c-13.17-12.32-63.46-59.53-97-105.38-2.06-2.73-4.11-5.64-6-8.38,16.59-.17,70-1.54,102-18.3h.17q2.06,4.36,3.6,8.72C1017.15,1095.86,1021.09,1130.58,1045.72,1150.77Z"/><path class="cls-12" d="M1004.84,1064.38c-35.41,21.56-76,20.87-99.73,18-2.06-2.73-4.11-5.64-6-8.38,16.59-.17,70-1.54,102-18.3h.17Q1003.3,1060,1004.84,1064.38Z"/><path class="cls-32" d="M1021.62,1121.56s36.64,3.41,47.73,13c9.26,8.06,3.6,18.12,3.6,18.12,19.72,11.09,0,54.1-34.42,64.71s-57-54.23-57-54.23S986.78,1123.87,1021.62,1121.56Z"/><path class="cls-32" d="M1483.89,2165.23h-124.3a14.87,14.87,0,0,1-5.57-5c-6.4-92.45-15.62-137-15.62-137l86.57-3.52,19.6,68.77C1473.57,2108.35,1508.14,2150.88,1483.89,2165.23Z"/><path class="cls-32" d="M1350.17,2166.9h147.37c3.73,0,2.48-20.5-1.26-20.5l-146.48.83C1346,2147.23,1346.33,2166.9,1350.17,2166.9Z"/><path class="cls-31" d="M1298.82,1180.64c20.11,54.11,105.7,302,81.27,480.56,33.61,118.7,23.05,219.25,53.36,392.62l-88.22,4.64c-35.86-211.52-75.32-171.16-86.74-380.63-72.69-164.25-110.39-319.86-129.74-480C1109.94,1077,1258.21,1013.59,1298.82,1180.64Z"/><path class="cls-32" d="M1346.14,2067.48s-6.6-63-48.11-183.21c-12.88-37-19.87-61.41-23.5-76.46-3.63-15.23-4.08-21-4.08-21,21.88-25.32,49.65-63.47,74.31-109.31,27,42.25,59.12,84.51,59.12,84.51s.82,9.92,2.28,26.17c6.51,68.08,24,248,34.57,286.18C1453.76,2121.53,1371.74,2148.39,1346.14,2067.48Z"/><path class="cls-12" d="M1406.16,1788.14c-14.09-15.74-39.46-45.33-60.68-77.67-9.62,34.9-50,77.16-71,97.34-3.63-15.23-4.08-21-4.08-21,21.88-25.32,49.65-63.47,74.31-109.31,27,42.25,59.12,84.51,59.12,84.51S1404.7,1771.89,1406.16,1788.14Z"/><path class="cls-31" d="M1194.49,1203.58c-6.23,235.71-48.25,435.92-48.25,435.92,17.79,160.81-22.67,190.78-40.94,420.85l-79.74-1.06c-.2-93.38-5.62-209-11.29-396.25-50.2-195.68-26-339.8-7.3-456.78C1026.94,1073.4,1207.23,1029.43,1194.49,1203.58Z"/><path class="cls-32" d="M1105.3,2060.35c7.11,38.09,12.21,67.81,9.23,102.28l-193.12,3.76s-19.11-18.62,4.92-46.54,69.67-11.77,99.23-60.56Z"/><path class="cls-32" d="M912.64,2166.9h205.17c3.74,0,2.76-20.5-1-20.5l-204.3.83C908.69,2147.23,908.8,2166.9,912.64,2166.9Z"/><path class="cls-32" d="M1143.65,1800.28s-1.38,6.85-3.73,18.48c-9.72,50.8-35.77,192.61-32.72,256.41-36.25,43.28-83.37-4.79-83.37-4.79l-19-350.5-1.3-23.6A436.86,436.86,0,0,0,1143.65,1800.28Z"/><path class="cls-12" d="M1143.65,1800.28s-1.38,6.85-3.73,18.48c-70.43-20.53-113.8-68.77-135.08-98.88l-1.3-23.6A436.86,436.86,0,0,0,1143.65,1800.28Z"/><path class="cls-31" d="M1012.91,1192.44c0,40.76,289.47,29,289.47-11.8-1-67.25,8.3-122.59,20.95-168.35,86.79-85,81.61-151,59.62-186.82-37.92-61.74-229.49-58.24-298.46-31.7-27.39,10.54-64.17,53.47-75.93,121.91-6,35.19,19.86,76.17,24,104.61C1042,1086.12,1014.84,1183,1012.91,1192.44Z"/><path class="cls-33" d="M1193.36,821.77c14.28-11.34,71.25-28.84,86.4-41.25l-3.42-98.89-56-5.46a166.5,166.5,0,0,0-46.47,10.76l-12.6,65.12-2.79,14.12C1152.13,780.07,1164.7,796.83,1193.36,821.77Z"/><path class="cls-34" d="M1257.49,704c-8.78,13.52-45.57,48.15-96.23,48l10.9-56.34Z"/><path class="cls-33" d="M1133.51,573.74c-4.39,19.48-13.44,62.26-12,82,2.25,30,30.26,63.26,54.69,67.62,28.28,2.88,66.41-5.54,87.11-23.32,11.51-13.5,33.81-45.53,44.07-73.56,21.41-58.48-19.91-109.75-72.33-121.6S1147.21,513,1133.51,573.74Z"/><path class="cls-35" d="M1289.87,665.07c10.93-19.24-3.6-27-19.52-12.1,2.72-14.52,19.27-57.05,4.61-71.16-16.56-16.37-89.42-9.24-128.57-50.06,0,0,29.18-64,124.95-26.19C1379.5,562.91,1289.87,665.07,1289.87,665.07Z"/><ellipse class="cls-33" cx="1290.52" cy="658.38" rx="23.61" ry="18.35" transform="translate(-40.61 1230.21) rotate(-50.28)"/><path class="cls-31" d="M1161.67,746.35c9.58,17.09,108.06,8.2,116.95-6.16l5.47,54.71-91.64,52-47.88-52.66Z"/><path class="cls-32" d="M1323.51,564.78c-2.7-47.89-95.39-115.47-161.88-90.38-44.84,16.92-34.32,64.53,4.73,73.52C1200.79,555.85,1296.15,514.57,1323.51,564.78Z"/><path class="cls-32" d="M1153.36,474.55s2-13.65,9.34-23.86c-52,34.07-26.13,74.83-25.52,76.56,20.63-62.64,69.86-59.77,87.34-59.55C1179.55,446.54,1153.81,472.68,1153.36,474.55Z"/><path class="cls-12" d="M1009.3,1206.26c75.51,32.57,250,25.4,302.1.45l13.33,44.17c-113.43,26.73-222,27.48-325-.84Z"/><path class="cls-31" d="M1514.59,1102.7c-49.95,53.54-155.32,114.61-155.32,114.61l-32.33-46.53c33.53-18.47,52-66.37,84-99.21,11-11.29,23.44-20.7,38.49-26.86-51-13.17-76.64-25.83-119.06-103.32-59.36-4.11-72.18-81.76-39.86-110.68,24.3-21.72,85.53-44.47,130.35,27,80.06,45,114.27,143.18,118.55,193.13C1543.33,1065.07,1532.55,1083.37,1514.59,1102.7Z"/><path class="cls-32" d="M1355.93,1146.43s-36.65-3.36-49.31,4.1c-10.58,6.23-6.86,17.16-6.86,17.16-21.41,7.29-9.89,53.18,22,69.91s65.94-42.91,65.94-42.91S1389.75,1155.07,1355.93,1146.43Z"/><path class="cls-32" d="M1514.59,1102.7c-3.08,3.25-6.33,6.67-9.75,9.92-52.68,51-145.57,104.69-145.57,104.69l-32.33-46.53c28.91-15.91,46.53-53.54,71.33-84.67a172.32,172.32,0,0,1,12.66-14.54C1423.42,1078.92,1460.71,1098.59,1514.59,1102.7Z"/><path class="cls-12" d="M1514.59,1102.7c-3.08,3.25-6.33,6.67-9.75,9.92-45.16-2.22-87.58-18.47-106.57-26.51a172.32,172.32,0,0,1,12.66-14.54C1423.42,1078.92,1460.71,1098.59,1514.59,1102.7Z"/><path class="cls-36" d="M1221.25,903.23h0l0-.26Z"/><path class="cls-36" d="M1221.25,903.23h0l0-.26Z"/><path class="cls-36" d="M1130.83,890.26s0-.23,0-.26l0,.26Z"/><path class="cls-36" d="M1130.83,890.26s0-.23,0-.26l0,.26Z"/><path class="cls-2" d="M1179.2,869.24c9,14.15,24.55,27,42,34-.15,1.34-1,8.77-5,43-5.37,45.69-47,62.22-53.48,64.75-5.49-3.88-42.21-32-36.84-77.71,4-34.25,4.9-41.68,5.06-43C1149.38,888.41,1167.23,880.39,1179.2,869.24Z"/><path class="cls-24" d="M1174.45,893.51l-.07,0c-8.69,6.87-20.17,11.63-32.39,13.4l-3.44,29.22c-1.57,13.37,1.82,26.13,10.07,37.93a71.56,71.56,0,0,0,14.14,15l.42.33a66.44,66.44,0,0,0,17.61-10.7c10.71-9.08,16.93-20.46,18.5-33.83l3.44-29.22A73.28,73.28,0,0,1,1174.45,893.51Z"/><path class="cls-12" d="M1149.68,779.6c4.91,12.63,21.3,23.75,39.78,34.59,37.53-6.15,66.32-17.77,94.48-34.25,27.71-.12,47.65,10.54,68.16,18.41L1188.48,825l-96.11-36.28C1105.15,784,1123.45,780.89,1149.68,779.6Z"/><path class="cls-36" d="M1711.81,1119.16h0c0-.81,0-1.16,0-1.24C1711.8,1118.07,1711.81,1119.16,1711.81,1119.16Z"/><path class="cls-36" d="M1711.81,1119.16h0c0-.81,0-1.16,0-1.24C1711.8,1118.07,1711.81,1119.16,1711.81,1119.16Z"/><path class="cls-36" d="M1229.09,1124.47s0-1.09,0-1.24c0,.08,0,.44,0,1.24Z"/><path class="cls-36" d="M1229.09,1124.47s0-1.09,0-1.24c0,.08,0,.44,0,1.24Z"/><path class="cls-2" d="M1468.59,990.93c56.66,59.61,146.75,108.18,242.94,128.49.07,6.39.46,41.77,2.28,204.84,2.41,217.53-204.87,325.19-237,341.72-31.38-14.13-242.69-118.89-245.11-336.42-1.81-163.06-2.2-198.44-2.27-204.83C1325.1,1102.31,1413.28,1051.77,1468.59,990.93Z"/><path class="cls-37" d="M1469.43,1030.24c55.42,49.94,132,89,216.07,110l2,184.3c.93,84.34-32.22,160.85-98.55,227.43a478.52,478.52,0,0,1-112.85,83.28l-3.2-1.63-4-602.93C1469.11,1030.53,1469.28,1030.39,1469.43,1030.24Z"/><path class="cls-38" d="M1469,1030.67l4,602.93a478.86,478.86,0,0,1-111.47-79.14c-67.78-65.11-102.63-140.87-103.57-225.21l-2.05-184.31C1339.2,1122.17,1414.69,1081.62,1469,1030.67Z"/><path class="cls-2" d="M1373.2,1297l1,142.79c.1,15.89,195.13,14.61,195-1.28l-1-142.79Zm73.78,53.42a24.09,24.09,0,1,1,34.1,21.61l.27,40.56a9.87,9.87,0,0,1-19.73.13l-.27-40.47A23.9,23.9,0,0,1,1447,1350.39Z"/><path class="cls-2" d="M1390.2,1286.68l19.74-.13-.06-9.61a60.7,60.7,0,0,1,121.39-.8l.06,9.62,19.74-.13L1551,1276c-.29-44.15-36.61-79.83-81-79.54s-80.19,36.45-79.9,80.6Z"/></g></g></svg>